<?xml version="1.0" encoding="UTF-8"?>
<!-- Created with Inkscape (http://www.inkscape.org/) -->
<svg width="132.03mm" height="132.03mm" version="1.1" viewBox="0 0 132.03 132.03" xmlns="http://www.w3.org/2000/svg" xmlns:cc="http://creativecommons.org/ns#" xmlns:dc="http://purl.org/dc/elements/1.1/" xmlns:rdf="http://www.w3.org/1999/02/22-rdf-syntax-ns#">
 <metadata>
  <rdf:RDF>
   <cc:Work rdf:about="">
    <dc:format>image/svg+xml</dc:format>
    <dc:type rdf:resource="http://purl.org/dc/dcmitype/StillImage"/>
    <dc:title/>
   </cc:Work>
  </rdf:RDF>
 </metadata>
 <g transform="translate(-34.745 -24.652)">
  <rect x="34.745" y="24.652" width="132.03" height="132.03" rx="6" fill="#009688" fill-opacity=".98913"/>
  <text x="53.071022" y="60.212387" fill="#ffffff" font-family="sans-serif" font-size="10.583px" letter-spacing="0px" stroke-width=".26458" word-spacing="0px" style="line-height:1.25" xml:space="preserve"><tspan x="53.071022" y="60.212387" fill="#ffffff" stroke-width=".26458">SellThatWine.com</tspan></text>
  <path d="m87.796 75.851c-3.0782 0-5.5562 2.4781-5.5562 5.5562v25.929c0 3.0782 2.4781 5.5562 5.5562 5.5562h25.929c3.0782 0 5.5562-2.4781 5.5562-5.5562v-25.929c0-3.0782-2.4781-5.5562-5.5562-5.5562zm12.986 3.4641c0.3655 3.7e-4 0.64034 7.41e-4 0.84836 0.01034 0.20802 0.0096 0.3492 0.02826 0.44773 0.06489 0.0493 0.01832 0.088 0.04125 0.11887 0.06968 0.0309 0.02842 0.054 0.06241 0.0726 0.10318 0.0371 0.08152 0.0554 0.18996 0.0791 0.33422 0.0378 0.23107 0.056 0.51266 0.0563 0.75706 2.4e-4 0.24439-0.0174 0.4515-0.0511 0.53329-0.0167 0.01747-0.0232 0.29924-0.0199 0.77658 3e-3 0.47736 0.0164 1.1502 0.0389 1.9502 0.0311 1.1116 0.0539 1.7883 0.0794 2.2111 0.0128 0.21138 0.0262 0.35928 0.0417 0.46628 0.0155 0.10701 0.033 0.17321 0.054 0.22108 0.0277 0.0632 0.10118 0.17174 0.19735 0.29574 0.0962 0.12401 0.21501 0.26346 0.33326 0.38839 0.18298 0.19332 0.34457 0.38123 0.48754 0.56888s0.26717 0.37505 0.37575 0.567c0.10858 0.19192 0.20156 0.38838 0.28138 0.59456 0.0798 0.20614 0.14659 0.42183 0.20329 0.65215 0.0313 0.12731 0.055 0.23161 0.0731 0.45117s0.0307 0.5544 0.0398 1.1433c0.0183 1.1778 0.0227 3.3718 0.031 7.6899l0.0168 8.767-0.16232 0.30857c-0.0877 0.16661-0.20825 0.33333-0.33747 0.47413s-0.26709 0.2556-0.38972 0.31814c-0.0845 0.0431-0.19645 0.0834-0.33038 0.12059-0.13394 0.0371-0.28978 0.0712-0.46228 0.10164-0.34499 0.061-0.75621 0.10768-1.19 0.13744-0.43387 0.0297-0.89041 0.0424-1.3259 0.035-0.43546-7e-3 -0.85-0.0348-1.2-0.0854h-2e-4c-0.30462-0.044-0.56251-0.092-0.78346-0.14911-0.22102-0.0571-0.40513-0.1233-0.56241-0.20367-0.15728-0.0804-0.2876-0.17501-0.40101-0.28885-0.11342-0.11384-0.20985-0.24697-0.29938-0.40446l-0.20713-0.36409-1e-3 -8.6496c-3.7e-4 -4.7573 0.0185-8.8015 0.0421-8.9871 0.0308-0.24153 0.0809-0.47709 0.15122-0.70864 0.0703-0.23155 0.16086-0.45913 0.27296-0.68509s0.24575-0.45016 0.40179-0.67493c0.15604-0.22478 0.33459-0.45021 0.53674-0.6782 0.1861-0.2099 0.32311-0.35733 0.42571-0.49999 0.0513-0.0713 0.0939-0.14157 0.12979-0.21764 0.0359-0.0761 0.0649-0.15807 0.089-0.25325 0.0482-0.19035 0.0765-0.43316 0.0993-0.78617 0.0229-0.35298 0.0404-0.81599 0.067-1.4466 0.0506-1.1977 0.0857-2.9063 0.0779-3.1762-0.0388-0.05199-0.0595-0.14596-0.0679-0.26243-8e-3 -0.11647-5e-3 -0.25544 5e-3 -0.39683 0.0198-0.28274 0.0644-0.5757 0.0856-0.7205 0.0169-0.11583 0.0319-0.20331 0.0672-0.26952 0.0176-0.0331 0.0403-0.06096 0.0708-0.08423 0.0306-0.02327 0.0689-0.0419 0.1179-0.05704 0.098-0.03028 0.23854-0.04608 0.44372-0.05417 0.20517-0.0081 0.47503-0.0084 0.8317-8e-3z" fill="#fff" stroke-width=".37042"/>
 </g>
</svg>
